<svg xmlns="http://www.w3.org/2000/svg" width="24.546" height="23" viewBox="0 0 24.546 23">
  <g id="Сгруппировать_60" data-name="Сгруппировать 60" transform="translate(285.024 -910.997)">
    <g id="Сгруппировать_59" data-name="Сгруппировать 59">
      <g id="Сгруппировать_58" data-name="Сгруппировать 58">
        <path id="Контур_12" data-name="Контур 12" d="M-277.194,928.872a2.562,2.562,0,0,0-2.562,2.563A2.562,2.562,0,0,0-277.194,934a2.563,2.563,0,0,0,2.563-2.562A2.563,2.563,0,0,0-277.194,928.872Zm0,3.986a1.424,1.424,0,0,1-1.424-1.423,1.424,1.424,0,0,1,1.424-1.424,1.424,1.424,0,0,1,1.424,1.424A1.424,1.424,0,0,1-277.194,932.858Z" fill="#5a5b5e"/>
        <path id="Контур_13" data-name="Контур 13" d="M-266.374,928.872a2.562,2.562,0,0,0-2.563,2.563A2.563,2.563,0,0,0-266.374,934a2.562,2.562,0,0,0,2.562-2.562A2.562,2.562,0,0,0-266.374,928.872Zm0,3.986a1.423,1.423,0,0,1-1.424-1.423,1.423,1.423,0,0,1,1.424-1.424,1.423,1.423,0,0,1,1.423,1.424A1.423,1.423,0,0,1-266.374,932.858Z" fill="#5a5b5e"/>
        <path id="Контур_14" data-name="Контур 14" d="M-260.594,914.813a.71.71,0,0,0-.456-.228l-18.536-.256-.512-1.567A2.621,2.621,0,0,0-282.547,911h-1.907a.57.57,0,0,0-.57.57.57.57,0,0,0,.57.569h1.907a1.481,1.481,0,0,1,1.367,1l3.616,10.905-.285.655a2.734,2.734,0,0,0,.257,2.477,2.648,2.648,0,0,0,2.135,1.2h11.076a.57.57,0,0,0,.569-.57.569.569,0,0,0-.569-.569h-11.076a1.453,1.453,0,0,1-1.2-.684,1.565,1.565,0,0,1-.142-1.366l.228-.513,11.987-1.253a3.133,3.133,0,0,0,2.7-2.391l1.366-5.723A.484.484,0,0,0-260.594,914.813Zm-2.392,5.95a1.935,1.935,0,0,1-1.737,1.509l-11.844,1.225-2.648-8.03,17.453.257Z" fill="#5a5b5e"/>
      </g>
    </g>
  </g>
</svg>
