<svg xmlns="http://www.w3.org/2000/svg" width="20.087" height="20.097" viewBox="0 0 20.087 20.097">
  <g id="Сгруппировать_54" data-name="Сгруппировать 54" transform="translate(501.343 -4271.841)">
    <g id="Сгруппировать_53" data-name="Сгруппировать 53">
      <path id="Контур_10" data-name="Контур 10" d="M-491.274,4271.857l7.682,0a2.276,2.276,0,0,1,2.336,2.351q0,7.682,0,15.365a2.279,2.279,0,0,1-2.37,2.354c-5.11,0-10.22-.019-15.33.008a2.417,2.417,0,0,1-2.384-2.4q.049-7.649,0-15.3a2.416,2.416,0,0,1,2.417-2.4C-496.373,4271.888-493.824,4271.857-491.274,4271.857Zm-6.076,8.475h-1.578v.363q0,4.05,0,8.1c0,.52.157.679.685.68q6.951,0,13.9,0c.526,0,.684-.162.685-.681q0-4.05,0-8.1c0-.122-.011-.244-.018-.386h-1.558a6.285,6.285,0,0,1-5.724,7.843,5.987,5.987,0,0,1-4.385-1.5A6.24,6.24,0,0,1-497.35,4280.332Zm6.081-2.272a3.863,3.863,0,0,0-3.9,3.823,3.847,3.847,0,0,0,3.886,3.9,3.853,3.853,0,0,0,3.866-3.853A3.858,3.858,0,0,0-491.269,4278.06Zm3.885-1.9v1.112a.72.72,0,0,0,.751.77q1.111.014,2.223,0a.72.72,0,0,0,.752-.772q.007-1.111,0-2.223a.673.673,0,0,0-.7-.734q-1.162-.021-2.327,0a.667.667,0,0,0-.7.737C-487.388,4275.424-487.383,4275.795-487.384,4276.165Z" fill="#fff"/>
    </g>
  </g>
</svg>
