<svg xmlns="http://www.w3.org/2000/svg" width="20" height="20" viewBox="0 0 20 20">
  <g id="Сгруппировать_52" data-name="Сгруппировать 52" transform="translate(463.742 -4271.898)">
    <path id="Контур_8" data-name="Контур 8" d="M-449.153,4283.821l-.007.063c-1.833-.914-2.024-1.035-2.261-.68-.164.245-.643.8-.787.968s-.291.175-.538.062a6.752,6.752,0,0,1-2-1.237,7.578,7.578,0,0,1-1.383-1.725c-.244-.422.267-.482.732-1.362a.457.457,0,0,0-.021-.436c-.063-.125-.56-1.35-.768-1.839s-.406-.425-.56-.425a1.241,1.241,0,0,0-1.14.287c-1.345,1.478-1.006,3,.145,4.625,2.261,2.96,3.466,3.5,5.67,4.262a3.435,3.435,0,0,0,1.566.1,2.556,2.556,0,0,0,1.68-1.188,2.052,2.052,0,0,0,.15-1.187c-.062-.113-.225-.175-.475-.288Z" fill="#fff"/>
    <path id="Контур_9" data-name="Контур 9" d="M-446.642,4274.773c-6.407-6.194-17.011-1.7-17.016,7.036a9.866,9.866,0,0,0,1.33,4.955l-1.414,5.134,5.279-1.376a9.976,9.976,0,0,0,14.721-8.708,9.826,9.826,0,0,0-2.913-7.009Zm1.235,7.014a8.3,8.3,0,0,1-12.51,7.087l-.3-.179-3.125.813.838-3.038-.2-.312a8.253,8.253,0,0,1,7.021-12.621,8.222,8.222,0,0,1,5.851,2.425,8.159,8.159,0,0,1,2.424,5.825Z" fill="#fff"/>
  </g>
</svg>
